<svg width="17" height="16" viewBox="0 0 17 16" fill="none" xmlns="http://www.w3.org/2000/svg">
<g clip-path="url(#clip0_205_102)">
<path d="M3.90006 13.5807L6.60709 10.2982L7.84538 11.8776L5.45866 14.9128C4.54459 16.0742 2.85319 14.8503 3.90006 13.5807ZM7.06152 6.10547C7.31933 5.26432 7.20084 4.54557 6.23209 3.47786L3.86491 0.630208C3.52897 0.235677 2.7373 0.815104 3.06803 1.29297L4.96126 3.625C5.31933 4.0599 4.65397 4.63542 4.28418 4.1875L2.32584 1.77604C1.96126 1.35807 1.20735 1.91016 1.58886 2.38802C2.14095 3.05208 2.99511 4.13672 3.5472 4.80078C3.93001 5.1901 3.34798 5.76693 2.97038 5.28125L1.02636 2.88542C0.741209 2.57552 0.275063 2.76823 0.151365 3.13021C0.0185524 3.51693 0.345375 3.79948 0.568032 4.08594L2.7373 6.88802C3.41048 7.66797 4.16308 8.13021 5.03808 7.86849C5.1722 7.82812 5.33626 7.74609 5.51204 7.63802L11.3402 15.1615C11.654 15.5664 12.2594 15.6094 12.6527 15.2826L12.7425 15.2083C13.1852 14.8398 13.2568 14.1667 12.8779 13.7318L6.70605 6.64062C6.88574 6.4401 7.01725 6.25 7.06152 6.10547ZM8.71126 7.74609L9.6709 6.58203C8.43652 3.52213 13.0107 -0.55599 15.2282 1.31901C17.9222 3.59896 13.9183 9.09375 11.1045 7.73568L9.96777 9.17969L8.71126 7.74609Z" fill="black"/>
</g>
<defs>
<clipPath id="clip0_205_102">
<rect width="16" height="16" fill="white" transform="translate(0.120117)"/>
</clipPath>
</defs>
</svg>
