<svg width="25" height="24" viewBox="0 0 25 24" fill="none" xmlns="http://www.w3.org/2000/svg">
<g id="&#240;&#159;&#141;&#138;Microphone">
<g id="Vector">
<path d="M9.25941 5.18897C9.25941 3.42559 10.6889 1.99609 12.4523 1.99609C14.2157 1.99609 15.6452 3.42559 15.6452 5.18897V13.9399C15.6452 15.7032 14.2157 17.1327 12.4523 17.1327C10.6889 17.1327 9.25941 15.7032 9.25941 13.9399V5.18897Z" fill="black"/>
<path d="M17.5578 13.7815C17.8419 13.7815 18.075 14.0123 18.0491 14.2952C17.9296 15.5973 17.3587 16.8234 16.4265 17.7556C15.3725 18.8096 13.943 19.4017 12.4524 19.4017C10.9618 19.4017 9.53233 18.8096 8.47834 17.7556C7.54611 16.8234 6.9752 15.5973 6.85574 14.2952C6.82979 14.0123 7.06292 13.7815 7.34697 13.7815C7.63101 13.7815 7.85872 14.0125 7.89047 14.2948C8.00618 15.3235 8.46722 16.2886 9.20629 17.0276C10.0672 17.8886 11.2349 18.3722 12.4524 18.3722C13.6699 18.3722 14.8376 17.8886 15.6985 17.0276C16.4376 16.2886 16.8986 15.3235 17.0143 14.2948C17.0461 14.0125 17.2738 13.7815 17.5578 13.7815Z" fill="black"/>
<path d="M11.9382 19.4323C11.9382 19.1483 12.1685 18.918 12.4525 18.918C12.7366 18.918 12.9668 19.1483 12.9668 19.4323V21.4896C12.9668 21.7736 12.7366 22.0039 12.4525 22.0039C12.1685 22.0039 11.9382 21.7736 11.9382 21.4896V19.4323Z" fill="black"/>
</g>
</g>
</svg>
