<svg width="12" height="21" viewBox="0 0 12 21" fill="none" xmlns="http://www.w3.org/2000/svg">
<path d="M2.80653 3.70667C2.80653 1.94329 4.23602 0.513794 5.9994 0.513794C7.76277 0.513794 9.19227 1.94329 9.19227 3.70667V12.4576C9.19227 14.2209 7.76277 15.6504 5.9994 15.6504C4.23602 15.6504 2.80653 14.2209 2.80653 12.4576V3.70667Z" fill="white"/>
<path d="M11.105 12.2992C11.389 12.2992 11.6221 12.53 11.5962 12.8129C11.4767 14.115 10.9058 15.3411 9.97359 16.2733C8.9196 17.3273 7.49009 17.9194 5.99952 17.9194C4.50896 17.9194 3.07945 17.3273 2.02546 16.2733C1.09323 15.3411 0.522318 14.115 0.402855 12.8129C0.376905 12.53 0.610036 12.2992 0.894085 12.2992C1.17813 12.2992 1.40584 12.5302 1.43759 12.8125C1.5533 13.8412 2.01434 14.8063 2.75341 15.5453C3.61433 16.4063 4.78199 16.8899 5.99952 16.8899C7.21705 16.8899 8.38472 16.4063 9.24564 15.5453C9.98471 14.8063 10.4458 13.8412 10.5615 12.8125C10.5932 12.5302 10.8209 12.2992 11.105 12.2992Z" fill="white"/>
<path d="M5.48533 17.95C5.48533 17.666 5.7156 17.4357 5.99965 17.4357C6.2837 17.4357 6.51397 17.666 6.51397 17.95V20.0073C6.51397 20.2913 6.2837 20.5216 5.99965 20.5216C5.7156 20.5216 5.48533 20.2913 5.48533 20.0073V17.95Z" fill="white"/>
</svg>
