<svg width="17" height="16" viewBox="0 0 17 16" fill="none" xmlns="http://www.w3.org/2000/svg">
<g id="Group">
<path id="Vector" d="M3.90006 13.1076L6.60709 9.82509L7.84538 11.4045L5.45866 14.4397C4.54459 15.6011 2.85319 14.3772 3.90006 13.1076ZM7.06152 5.63238C7.31933 4.79124 7.20084 4.07249 6.23209 3.00478L3.86491 0.157124C3.52897 -0.237407 2.7373 0.34202 3.06803 0.819885L4.96126 3.15192C5.31933 3.58681 4.65397 4.16233 4.28418 3.71442L2.32584 1.30296C1.96126 0.884989 1.20735 1.43707 1.58886 1.91494C2.14095 2.579 2.99511 3.66363 3.5472 4.3277C3.93001 4.71702 3.34798 5.29384 2.97038 4.80817L1.02636 2.41233C0.741209 2.10244 0.275063 2.29515 0.151365 2.65712C0.0185524 3.04384 0.345375 3.3264 0.568032 3.61285L2.7373 6.41494C3.41048 7.19488 4.16308 7.65712 5.03808 7.39541C5.1722 7.35504 5.33626 7.27301 5.51204 7.16494L11.3402 14.6884C11.654 15.0933 12.2594 15.1363 12.6527 14.8095L12.7425 14.7352C13.1852 14.3668 13.2568 13.6936 12.8779 13.2587L6.70605 6.16754C6.88574 5.96702 7.01725 5.77692 7.06152 5.63238ZM8.71126 7.27301L9.6709 6.10895C8.43652 3.04905 13.0107 -1.02907 15.2282 0.845926C17.9222 3.12587 13.9183 8.62067 11.1045 7.26259L9.96777 8.7066L8.71126 7.27301Z" fill="white"/>
</g>
</svg>
